<svg width="32" height="29" viewBox="0 0 32 29" fill="none" xmlns="http://www.w3.org/2000/svg">
<line opacity="0.46" y1="27.5" x2="32" y2="27.5" stroke="white" stroke-width="3"/>
<path opacity="0.46" d="M14.9493 23.0607C15.5351 23.6464 16.4849 23.6464 17.0707 23.0607L26.6166 13.5147C27.2024 12.9289 27.2024 11.9792 26.6166 11.3934C26.0308 10.8076 25.0811 10.8076 24.4953 11.3934L16.01 19.8787L7.52473 11.3934C6.93894 10.8076 5.98919 10.8076 5.40341 11.3934C4.81762 11.9792 4.81762 12.9289 5.40341 13.5147L14.9493 23.0607ZM16.01 0L14.51 -6.55671e-08L14.51 22L16.01 22L17.51 22L17.51 6.55671e-08L16.01 0Z" fill="white"/>
</svg>
