<svg id="Layer_1" data-name="Layer 1" xmlns="http://www.w3.org/2000/svg" xmlns:xlink="http://www.w3.org/1999/xlink" viewBox="0 0 171.53 171.53"><defs><style>.cls-1{fill:none;}.cls-2,.cls-3,.cls-4,.cls-6{isolation:isolate;}.cls-3,.cls-4,.cls-6{font-size:12px;fill:#fff;font-family:Arial-BoldMT, Arial;font-weight:700;}.cls-3{letter-spacing:0.09em;}.cls-4{letter-spacing:0.05em;}.cls-5{letter-spacing:0.07em;}.cls-6{letter-spacing:0.07em;}.cls-7{clip-path:url(#clip-path);}.cls-8{fill:url(#linear-gradient);}.cls-9{fill:#eeac04;}.cls-10{clip-path:url(#clip-path-2);}</style><clipPath id="clip-path" transform="translate(39.75 10.93)"><path class="cls-1" d="M61.51,16.05,85.15,39.71,61.51,63.31ZM55.28.88a1.76,1.76,0,0,0-1.77,1.75h0V76.71a1.75,1.75,0,0,0,1.77,1.75A1.78,1.78,0,0,0,56.51,78L91.23,43.24a5,5,0,0,0,0-7.07l0-.05L56.51,1.4A1.74,1.74,0,0,0,55.28.88Z"/></clipPath><linearGradient id="linear-gradient" x1="2199.34" y1="744.17" x2="2370.87" y2="744.17" gradientTransform="matrix(0, 1, 1, 0, -658.4, -2199.34)" gradientUnits="userSpaceOnUse"><stop offset="0.23" stop-color="#fff"/><stop offset="1"/></linearGradient><clipPath id="clip-path-2" transform="translate(39.75 10.93)"><path class="cls-1" d="M44.36,11.4,16.06,39.71,44.36,68a7.37,7.37,0,0,1,2.15,5.21v4a1.48,1.48,0,0,1-2.53,1L8.61,42.85a4.48,4.48,0,0,1,0-6.34h0L44,1.15a1.48,1.48,0,0,1,2.09,0,1.5,1.5,0,0,1,.44,1.06v4A7.39,7.39,0,0,1,44.36,11.4Z"/></clipPath></defs><g id="Layer_2" data-name="Layer 2"><g id="Layer_1-2" data-name="Layer 1-2"><g class="cls-2"><text class="cls-3" transform="translate(40.81 116.29)">C</text><text class="cls-4" transform="translate(50.56 116.29)">R</text><text class="cls-3" transform="translate(59.86 116.29)">Y<tspan class="cls-5" x="9.08" y="0">P</tspan></text><text class="cls-6" transform="translate(78.02 116.29)">T</text><text class="cls-3" transform="translate(86.22 116.29)">OFOLIO</text></g><g class="cls-7"><rect class="cls-8" width="171.53" height="171.53"/></g><path class="cls-9" d="M46,56.1,29.53,39.71,46,23.26V56.1" transform="translate(39.75 10.93)"/><g class="cls-10"><rect class="cls-8" width="171.53" height="171.53"/></g></g></g></svg>