<svg xmlns="http://www.w3.org/2000/svg" xmlns:xlink="http://www.w3.org/1999/xlink" viewBox="0 0 171.53 171.53"><defs><style>.cls-1{fill:none;}.cls-2{font-size:12px;fill:#fff;font-family:Arial-BoldMT, Arial;font-weight:700;letter-spacing:0.09em;}.cls-3{letter-spacing:0.05em;}.cls-4{letter-spacing:0.07em;}.cls-5{clip-path:url(#clip-path);}.cls-6{fill:url(#linear-gradient);}.cls-7{fill:#eeac04;}.cls-8{clip-path:url(#clip-path-2);}</style><clipPath id="clip-path" transform="translate(40.81 11.64)"><path class="cls-1" d="M60.45,15.34,84.09,39,60.45,62.6v-46M54.22.17a1.76,1.76,0,0,0-1.77,1.76V76a1.76,1.76,0,0,0,3,1.24L90.17,42.53a5,5,0,0,0,0-7.12L55.45.69A1.72,1.72,0,0,0,54.22.17Z"/></clipPath><linearGradient id="linear-gradient" x1="2658.51" y1="744.31" x2="2830.04" y2="744.31" gradientTransform="translate(-2699.32 -670.19)" gradientUnits="userSpaceOnUse"><stop offset="0.23" stop-color="#fff"/><stop offset="1"/></linearGradient><clipPath id="clip-path-2" transform="translate(40.81 11.64)"><path class="cls-1" d="M43.3,10.69,15,39,43.3,67.25a7.37,7.37,0,0,1,2.15,5.21v4a1.48,1.48,0,0,1-2.53,1.05L7.55,42.14a4.48,4.48,0,0,1,0-6.34L42.92.44a1.48,1.48,0,0,1,2.53,1.05v4A7.37,7.37,0,0,1,43.3,10.69Z"/></clipPath></defs><g id="Layer_2" data-name="Layer 2"><g id="Layer_1-2" data-name="Layer 1"><text class="cls-2" transform="translate(40.81 116.29)">C<tspan class="cls-3" x="9.75" y="0">R</tspan><tspan x="19.05" y="0">YP</tspan><tspan class="cls-4" x="37.21" y="0">T</tspan><tspan x="45.41" y="0">OFOLIO</tspan></text><g class="cls-5"><rect class="cls-6" x="-40.81" y="-11.64" width="171.53" height="171.53" transform="translate(159.89 40.81) rotate(90)"/></g><path class="cls-7" d="M44.89,55.39,28.47,39,44.89,22.55V55.39" transform="translate(40.81 11.64)"/><g class="cls-8"><rect class="cls-6" x="-40.81" y="-11.64" width="171.53" height="171.53" transform="translate(159.89 40.81) rotate(90)"/></g></g></g></svg>