<svg xmlns="http://www.w3.org/2000/svg" xmlns:xlink="http://www.w3.org/1999/xlink" viewBox="0 0 171.53 171.53"><defs><style>.cls-1{fill:none;}.cls-2{clip-path:url(#clip-path);}.cls-3{fill:url(#linear-gradient);}.cls-4{fill:#eeac04;}.cls-5{clip-path:url(#clip-path-2);}</style><clipPath id="clip-path" transform="translate(47.05 11.64)"><path class="cls-1" d="M54.21,15.34,77.84,39,54.21,62.6v-46M48,.17a1.76,1.76,0,0,0-1.77,1.76V76A1.75,1.75,0,0,0,48,77.77a1.71,1.71,0,0,0,1.22-.51L83.93,42.53a5,5,0,0,0,0-7.12L49.2.69A1.68,1.68,0,0,0,48,.17Z"/></clipPath><linearGradient id="linear-gradient" x1="2652.27" y1="744.31" x2="2823.8" y2="744.31" gradientTransform="translate(-2699.32 -670.19)" gradientUnits="userSpaceOnUse"><stop offset="0.23" stop-color="#fff"/><stop offset="1"/></linearGradient><clipPath id="clip-path-2" transform="translate(47.05 11.64)"><path class="cls-1" d="M37.06,10.69,8.77,39,37.06,67.25a7.37,7.37,0,0,1,2.15,5.21v4a1.48,1.48,0,0,1-2.53,1.05L1.31,42.14a4.48,4.48,0,0,1,0-6.34L36.68.44a1.48,1.48,0,0,1,2.53,1.05v4A7.37,7.37,0,0,1,37.06,10.69Z"/></clipPath></defs><g id="Layer_2" data-name="Layer 2"><g id="Layer_1-2" data-name="Layer 1"><g class="cls-2"><rect class="cls-3" x="-47.05" y="-11.64" width="171.53" height="171.53" transform="translate(159.89 47.05) rotate(90)"/></g><path class="cls-4" d="M38.65,55.39,22.23,39,38.65,22.55V55.39" transform="translate(47.05 11.64)"/><g class="cls-5"><rect class="cls-3" x="-47.05" y="-11.64" width="171.53" height="171.53" transform="translate(159.89 47.05) rotate(90)"/></g></g></g></svg>