<svg id="Layer_1" data-name="Layer 1" xmlns="http://www.w3.org/2000/svg" xmlns:xlink="http://www.w3.org/1999/xlink" viewBox="0 0 171.53 171.53"><defs><style>.cls-1{fill:none;}.cls-2{clip-path:url(#clip-path);}.cls-3{fill:url(#linear-gradient);}.cls-4{fill:#eeac04;}.cls-5{clip-path:url(#clip-path-2);}</style><clipPath id="clip-path" transform="translate(44.87 5.73)"><path class="cls-1" d="M56.39,21.25,80,44.91,56.39,68.51ZM50.18,6.08a1.75,1.75,0,0,0-1.77,1.75h0V81.91a1.75,1.75,0,0,0,1.73,1.77h0a1.77,1.77,0,0,0,1.22-.51L86.11,48.44a5,5,0,0,0,0-7.07l0,0L51.38,6.6A1.67,1.67,0,0,0,50.18,6.08Z"/></clipPath><linearGradient id="linear-gradient" x1="2226.54" y1="710.81" x2="2398.07" y2="710.81" gradientTransform="matrix(0, 1, 1, 0, -625.05, -2226.54)" gradientUnits="userSpaceOnUse"><stop offset="0.23" stop-color="#fff"/><stop offset="1"/></linearGradient><clipPath id="clip-path-2" transform="translate(44.87 5.73)"><path class="cls-1" d="M39.24,16.6,11,44.91,39.24,73.16a7.4,7.4,0,0,1,2.15,5.21v4a1.48,1.48,0,0,1-1.48,1.48,1.43,1.43,0,0,1-1-.43L3.49,48.05a4.48,4.48,0,0,1,0-6.34h0L38.86,6.35a1.47,1.47,0,0,1,2.09,0,1.5,1.5,0,0,1,.44,1.06v4A7.43,7.43,0,0,1,39.24,16.6Z"/></clipPath></defs><g id="Layer_2" data-name="Layer 2"><g id="Layer_1-2" data-name="Layer 1-2"><g class="cls-2"><rect class="cls-3" width="171.53" height="171.53"/></g><path class="cls-4" d="M40.83,61.3,24.41,44.91,40.83,28.46V61.3" transform="translate(44.87 5.73)"/><g class="cls-5"><rect class="cls-3" width="171.53" height="171.53"/></g></g></g></svg>