<svg width="86" height="78" viewBox="0 0 86 78" fill="none" xmlns="http://www.w3.org/2000/svg">
<mask id="mask0_1056_859" style="mask-type:luminance" maskUnits="userSpaceOnUse" x="46" y="0" width="40" height="78">
<path d="M54.2144 15.337L77.8444 38.997L54.2144 62.597V15.337ZM48.0044 0.16696C47.7733 0.165643 47.5442 0.209864 47.3301 0.297097C47.1161 0.384331 46.9213 0.512869 46.757 0.675372C46.5926 0.837876 46.4619 1.03116 46.3722 1.24419C46.2825 1.45723 46.2357 1.68583 46.2344 1.91696V75.997C46.2331 76.2298 46.278 76.4605 46.3664 76.6759C46.4549 76.8912 46.5852 77.0869 46.7499 77.2515C46.9145 77.4161 47.1101 77.5465 47.3255 77.6349C47.5408 77.7234 47.7716 77.7683 48.0044 77.767C48.4626 77.7652 48.9013 77.5818 49.2244 77.257L83.9344 42.527C84.8718 41.5893 85.3983 40.3178 85.3983 38.992C85.3983 37.6661 84.8718 36.3946 83.9344 35.457V35.407L49.2044 0.68696C49.0508 0.522606 48.8649 0.391626 48.6585 0.302167C48.452 0.212709 48.2294 0.166685 48.0044 0.16696Z" fill="white"/>
</mask>
<g mask="url(#mask0_1056_859)">
<path d="M124.485 -11.6431H-47.0454V159.887H124.485V-11.6431Z" fill="url(#paint0_linear_1056_859)"/>
</g>
<path d="M38.6544 55.387L22.2344 38.997L38.6544 22.547V55.387Z" fill="#EEAC04"/>
<mask id="mask1_1056_859" style="mask-type:luminance" maskUnits="userSpaceOnUse" x="0" y="0" width="40" height="78">
<path d="M37.0643 10.687L8.77433 38.997L37.0643 67.247C37.7496 67.9299 38.2926 68.7421 38.6616 69.6364C39.0307 70.5308 39.2186 71.4895 39.2143 72.457V76.457C39.2156 76.6509 39.1786 76.8431 39.1053 77.0226C39.032 77.2021 38.924 77.3653 38.7873 77.5029C38.6507 77.6405 38.4882 77.7496 38.3092 77.8241C38.1302 77.8986 37.9382 77.937 37.7443 77.937C37.5477 77.9409 37.3524 77.9048 37.1701 77.8309C36.9879 77.757 36.8226 77.6468 36.6843 77.507L1.31432 42.137C0.89767 41.7209 0.567129 41.2267 0.341605 40.6828C0.116081 40.1389 0 39.5558 0 38.967C0 38.3781 0.116081 37.7951 0.341605 37.2511C0.567129 36.7072 0.89767 36.2131 1.31432 35.797L36.6843 0.436976C36.8219 0.298499 36.9855 0.188599 37.1657 0.113604C37.3459 0.038609 37.5391 0 37.7343 0C37.9295 0 38.1228 0.038609 38.303 0.113604C38.4832 0.188599 38.6468 0.298499 38.7843 0.436976C38.9241 0.575268 39.0344 0.740554 39.1083 0.922781C39.1822 1.10501 39.2183 1.30037 39.2143 1.49698V5.49698C39.2131 7.44341 38.4399 9.3099 37.0643 10.687Z" fill="white"/>
</mask>
<g mask="url(#mask1_1056_859)">
<path d="M124.484 -11.643H-47.0459V159.887H124.484V-11.643Z" fill="url(#paint1_linear_1056_859)"/>
</g>
<defs>
<linearGradient id="paint0_linear_1056_859" x1="38.7246" y1="-11.6431" x2="38.7246" y2="159.887" gradientUnits="userSpaceOnUse">
<stop offset="0.23" stop-color="white"/>
<stop offset="1"/>
</linearGradient>
<linearGradient id="paint1_linear_1056_859" x1="38.7241" y1="-11.643" x2="38.7241" y2="159.887" gradientUnits="userSpaceOnUse">
<stop offset="0.23" stop-color="white"/>
<stop offset="1"/>
</linearGradient>
</defs>
</svg>
