<svg width="61" height="61" viewBox="0 0 61 61" fill="none" xmlns="http://www.w3.org/2000/svg">
<path d="M30.4056 14.8492C26.1098 10.5535 19.145 10.5535 14.8492 14.8492C10.5535 19.145 10.5535 26.1098 14.8492 30.4056C19.145 34.7014 26.1098 34.7014 30.4056 30.4056L33.9411 33.9411C27.6927 40.1895 17.5621 40.1895 11.3137 33.9411C5.06532 27.6927 5.06532 17.5621 11.3137 11.3137C17.5621 5.06531 27.6927 5.06531 33.9411 11.3137C40.1895 17.5621 40.1895 27.6927 33.9411 33.9411L30.4056 30.4056C34.7014 26.1098 34.7014 19.145 30.4056 14.8492Z" fill="#8C8BA1"/>
<path d="M33.234 37.4767L32.5269 33.234L36.7696 33.9411L50.2046 47.3762L46.6691 50.9117L33.234 37.4767Z" fill="#8C8BA1"/>
</svg>
