<svg width="25" height="25" viewBox="0 0 25 25" fill="none" xmlns="http://www.w3.org/2000/svg">
<path d="M12.0244 3.08203C12.1741 2.62138 12.8259 2.62137 12.9756 3.08203L14.6064 8.10059C14.8073 8.71862 15.3834 9.1377 16.0332 9.1377H21.3105C21.7949 9.13771 21.9963 9.75729 21.6045 10.042L17.335 13.1436C16.8092 13.5255 16.5892 14.2033 16.79 14.8213L18.4209 19.8398C18.5706 20.3004 18.0432 20.6839 17.6514 20.3994L13.3818 17.2969C12.8561 16.9149 12.1439 16.9149 11.6182 17.2969L7.34863 20.3994C6.95679 20.6839 6.42944 20.3004 6.5791 19.8398L8.20996 14.8213C8.41077 14.2033 8.19077 13.5255 7.66504 13.1436L3.39551 10.042C3.00366 9.7573 3.20511 9.13772 3.68945 9.1377H8.9668C9.61664 9.1377 10.1927 8.71862 10.3936 8.10059L12.0244 3.08203Z" stroke="#646188"/>
</svg>
